<?xml version="1.0" encoding="UTF-8"?>
<svg id="Capa_2" data-name="Capa 2" xmlns="http://www.w3.org/2000/svg" viewBox="0 0 80 80">
  <defs>
    <style>
      .cls-1 {
        fill: #fff;
      }

      .cls-2 {
        fill: none;
      }
    </style>
  </defs>
  <g id="Gear">
    <g>
      <path class="cls-1" d="m68.18,21.21h-24.85v-5.1h.77c.83,0,1.5-.67,1.5-1.5v-.58c0-.83-.67-1.5-1.5-1.5h-8.18c-.83,0-1.5.67-1.5,1.5v.58c0,.83.67,1.5,1.5,1.5h.77v5.1H11.82c-6.52,0-11.82,5.3-11.82,11.82v18.1c0,6.52,5.3,11.82,11.82,11.82h3.18v6.2c0,.73.59,1.31,1.31,1.31h4.45c.73,0,1.31-.59,1.31-1.31v-6.2h35.84v6.2c0,.73.59,1.31,1.31,1.31h4.45c.73,0,1.31-.59,1.31-1.31v-6.2h3.17c6.52,0,11.82-5.3,11.82-11.82v-18.1c0-6.52-5.3-11.82-11.82-11.82Zm10.07,29.93c0,5.55-4.52,10.07-10.07,10.07H11.82c-5.55,0-10.07-4.52-10.07-10.07v-18.1c0-5.55,4.52-10.07,10.07-10.07h56.35c5.55,0,10.07,4.52,10.07,10.07v18.1Z"/>
      <rect class="cls-2" width="80" height="80"/>
    </g>
  </g>
</svg>